<svg xmlns="http://www.w3.org/2000/svg" viewBox="0 0 1465.96 1460.78"><defs><style>.cls-1{fill:#fff;}.cls-2,.cls-3{fill:#231f20;}.cls-3{stroke:#231f20;stroke-miterlimit:10;stroke-width:3.95px;}</style></defs><g id="Layer_2" data-name="Layer 2"><g id="Layer_6" data-name="Layer 6"><rect class="cls-1" x="15.63" y="20.76" width="1430.5" height="1430.5" rx="40.14"/><path class="cls-2" d="M1406,1453.24c-440.79-2.13-909.82,5-1351.36,7.54a49.58,49.58,0,0,1-32.65-13,50.15,50.15,0,0,1-16.26-36.61C4.62,1176.29,1.79,578,1.1,351.18,1,280.35.12,131.09,0,61.35A58.46,58.46,0,0,1,4.37,39.07,56.3,56.3,0,0,1,55.77,4.89c88.29,0,265.11-1.41,353.31-1.7C725.75,1.74,1087.92-1.34,1402.77.65h2.76c.36,0,1.19,0,1.84,0l2.07.11A60.14,60.14,0,0,1,1466,60.9q-.86,176.65-3.33,353.31c-4.74,328.35-12.93,668.28-14.24,996.46a42.42,42.42,0,0,1-42.41,42.57Zm0-4c16-.09,30.78-10.46,35.84-25.77,1.82-4.94,2.13-10.36,2-15.59-1.26-327.18-9.6-666.35-14.23-993.7q-2.43-176.65-3.33-353.31a20.49,20.49,0,0,0-3.1-10.53,20.28,20.28,0,0,0-13.29-9.15c-378.74.7-797.68-1.33-1177.47-3.84L55.77,36.63a24.49,24.49,0,0,0-12.7,3.54A24.23,24.23,0,0,0,32.18,54.52a33.34,33.34,0,0,0-.93,9.59C30,434.84,27.4,1035,25.55,1411.12a30.92,30.92,0,0,0,6.75,19.27l1.4,1.56a10.33,10.33,0,0,0,.7.77l.78.71c2.4,2.52,5.61,4.21,8.68,5.75l2,.73a32.92,32.92,0,0,0,4,1.15,37.49,37.49,0,0,0,6.38.63H59c440.28,2.47,907.49,9.89,1347,7.57Z"/><circle class="cls-3" cx="375.63" cy="371.26" r="125.11"/><circle class="cls-3" cx="375.63" cy="736.01" r="125.11"/><circle class="cls-3" cx="375.63" cy="1088.77" r="125.11"/><circle class="cls-3" cx="1100.24" cy="1107.84" r="125.11"/><circle class="cls-3" cx="1100.24" cy="736.01" r="125.11"/><circle class="cls-3" cx="1100.24" cy="383.25" r="125.11"/></g></g></svg>