<svg xmlns="http://www.w3.org/2000/svg" viewBox="0 0 1458.31 1453.14"><defs><style>.cls-1{fill:#fff;}.cls-2{fill:#231f20;}</style></defs><g id="Layer_2" data-name="Layer 2"><g id="Layer_1-2" data-name="Layer 1"><rect class="cls-1" x="15.54" y="20.59" width="1423.03" height="1423.03" rx="40.14"/><path class="cls-2" d="M1398.44,1445.6c-437-2-902.17,4.81-1339.9,7.53H55.8l-3.36-.14-1.69-.09c-.57-.05-1.13-.15-1.69-.22l-3.36-.51-3.3-.82c-.55-.15-1.11-.27-1.65-.44l-1.6-.57c-1.07-.4-2.15-.75-3.19-1.2a52.45,52.45,0,0,1-15.46-10.38,50.46,50.46,0,0,1-14.82-35.29C5.35,1025.9.18,433,0,60.85a55.91,55.91,0,0,1,55.68-56C483.89,3.37,945.93-1.55,1373.61.48l22,.1h2.74c1.26,0,2.7.11,4,.18l2,.13a60.33,60.33,0,0,1,34.91,15.94,58.72,58.72,0,0,1,10.29,12.69,60.13,60.13,0,0,1,8.71,31.2q-1.26,263.6-6,527.17c-5.24,268.33-9.79,552.07-11.68,819.8a42.39,42.39,0,0,1-42.15,37.9Zm0-3.95a38.11,38.11,0,0,0,37.89-38.28c-1.23-326.39-9.54-664.64-14.17-991.19q-2.43-175.73-3.32-351.45a20.45,20.45,0,0,0-14.33-19.26,31,31,0,0,0-4-.79h-.7c-.49,0-.87-.05-1.45-.08h-2.74c-312.65,1.19-674-.25-988.45-2.53-87.37-.21-264-1.58-351.45-1.69A24.58,24.58,0,0,0,31.23,58.26C29.56,429.42,27.4,1027,25.41,1403.48a30.58,30.58,0,0,0,24.12,30l2.06.32c.35,0,.69.13,1,.17l1.05,0,2.13.13h2.74c438,2.47,902.7,9.82,1339.9,7.53Z"/><circle class="cls-2" cx="723.33" cy="735.78" r="190.31"/><path class="cls-2" d="M913.82,735.78c.77,75.48-47.48,148-117.42,176.42-125.21,52.62-264.88-40.72-264.77-176.42-.42-136.39,139.16-230,265.09-177.17,70,28.71,118.12,101.57,117.1,177.17Zm-.35,0c.67-75.17-48-147-117.85-174.52-123.84-50.71-261,40.47-261.22,174.53-.31,134.58,137.2,226.33,261.53,175.27,69.89-27.83,118.46-100,117.54-175.28Z"/></g></g></svg>